<mxfile host="drawio-plugin" modified="2021-07-13T04:56:48.928Z" agent="5.0 (Windows NT 6.2; Win64; x64) AppleWebKit/537.36 (KHTML, like Gecko) Chrome/89.0.4389.90 Safari/537.36" etag="WmyBeigVzkdaXJls33_M" version="14.7.4" type="embed"><diagram id="70VDa7oGke_MJfD-1_xo" name="Page-1"><mxGraphModel dx="484" dy="431" grid="1" gridSize="10" guides="1" tooltips="1" connect="1" arrows="1" fold="1" page="1" pageScale="1" pageWidth="850" pageHeight="1100" math="0" shadow="0"><root><mxCell id="0"/><mxCell id="1" parent="0"/><mxCell id="FwAvgV-Urs3Dg-ANaa96-1" value="User" style="shape=table;startSize=30;container=1;collapsible=1;childLayout=tableLayout;fixedRows=1;rowLines=0;fontStyle=1;align=center;resizeLast=1;" parent="1" vertex="1"><mxGeometry x="40" y="90" width="180" height="160" as="geometry"/></mxCell><mxCell id="FwAvgV-Urs3Dg-ANaa96-2" value="" style="shape=partialRectangle;collapsible=0;dropTarget=0;pointerEvents=0;fillColor=none;top=0;left=0;bottom=1;right=0;points=[[0,0.5],[1,0.5]];portConstraint=eastwest;" parent="FwAvgV-Urs3Dg-ANaa96-1" vertex="1"><mxGeometry y="30" width="180" height="30" as="geometry"/></mxCell><mxCell id="FwAvgV-Urs3Dg-ANaa96-3" value="PK" style="shape=partialRectangle;connectable=0;fillColor=none;top=0;left=0;bottom=0;right=0;fontStyle=1;overflow=hidden;" parent="FwAvgV-Urs3Dg-ANaa96-2" vertex="1"><mxGeometry width="30" height="30" as="geometry"/></mxCell><mxCell id="FwAvgV-Urs3Dg-ANaa96-4" value="user_id: long" style="shape=partialRectangle;connectable=0;fillColor=none;top=0;left=0;bottom=0;right=0;align=left;spacingLeft=6;fontStyle=5;overflow=hidden;" parent="FwAvgV-Urs3Dg-ANaa96-2" vertex="1"><mxGeometry x="30" width="150" height="30" as="geometry"/></mxCell><mxCell id="FwAvgV-Urs3Dg-ANaa96-5" value="" style="shape=partialRectangle;collapsible=0;dropTarget=0;pointerEvents=0;fillColor=none;top=0;left=0;bottom=0;right=0;points=[[0,0.5],[1,0.5]];portConstraint=eastwest;" parent="FwAvgV-Urs3Dg-ANaa96-1" vertex="1"><mxGeometry y="60" width="180" height="30" as="geometry"/></mxCell><mxCell id="FwAvgV-Urs3Dg-ANaa96-6" value="" style="shape=partialRectangle;connectable=0;fillColor=none;top=0;left=0;bottom=0;right=0;editable=1;overflow=hidden;" parent="FwAvgV-Urs3Dg-ANaa96-5" vertex="1"><mxGeometry width="30" height="30" as="geometry"/></mxCell><mxCell id="FwAvgV-Urs3Dg-ANaa96-7" value="timestamp: Date" style="shape=partialRectangle;connectable=0;fillColor=none;top=0;left=0;bottom=0;right=0;align=left;spacingLeft=6;overflow=hidden;" parent="FwAvgV-Urs3Dg-ANaa96-5" vertex="1"><mxGeometry x="30" width="150" height="30" as="geometry"/></mxCell><mxCell id="FwAvgV-Urs3Dg-ANaa96-8" value="" style="shape=partialRectangle;collapsible=0;dropTarget=0;pointerEvents=0;fillColor=none;top=0;left=0;bottom=0;right=0;points=[[0,0.5],[1,0.5]];portConstraint=eastwest;" parent="FwAvgV-Urs3Dg-ANaa96-1" vertex="1"><mxGeometry y="90" width="180" height="30" as="geometry"/></mxCell><mxCell id="FwAvgV-Urs3Dg-ANaa96-9" value="" style="shape=partialRectangle;connectable=0;fillColor=none;top=0;left=0;bottom=0;right=0;editable=1;overflow=hidden;" parent="FwAvgV-Urs3Dg-ANaa96-8" vertex="1"><mxGeometry width="30" height="30" as="geometry"/></mxCell><mxCell id="FwAvgV-Urs3Dg-ANaa96-10" value="user_name: String" style="shape=partialRectangle;connectable=0;fillColor=none;top=0;left=0;bottom=0;right=0;align=left;spacingLeft=6;overflow=hidden;" parent="FwAvgV-Urs3Dg-ANaa96-8" vertex="1"><mxGeometry x="30" width="150" height="30" as="geometry"/></mxCell><mxCell id="FwAvgV-Urs3Dg-ANaa96-11" value="" style="shape=partialRectangle;collapsible=0;dropTarget=0;pointerEvents=0;fillColor=none;top=0;left=0;bottom=0;right=0;points=[[0,0.5],[1,0.5]];portConstraint=eastwest;" parent="FwAvgV-Urs3Dg-ANaa96-1" vertex="1"><mxGeometry y="120" width="180" height="30" as="geometry"/></mxCell><mxCell id="FwAvgV-Urs3Dg-ANaa96-12" value="" style="shape=partialRectangle;connectable=0;fillColor=none;top=0;left=0;bottom=0;right=0;editable=1;overflow=hidden;" parent="FwAvgV-Urs3Dg-ANaa96-11" vertex="1"><mxGeometry width="30" height="30" as="geometry"/></mxCell><mxCell id="FwAvgV-Urs3Dg-ANaa96-13" value="skill: Enum (N)" style="shape=partialRectangle;connectable=0;fillColor=none;top=0;left=0;bottom=0;right=0;align=left;spacingLeft=6;overflow=hidden;" parent="FwAvgV-Urs3Dg-ANaa96-11" vertex="1"><mxGeometry x="30" width="150" height="30" as="geometry"/></mxCell><mxCell id="FwAvgV-Urs3Dg-ANaa96-14" value="Game" style="shape=table;startSize=30;container=1;collapsible=1;childLayout=tableLayout;fixedRows=1;rowLines=0;fontStyle=1;align=center;resizeLast=1;" parent="1" vertex="1"><mxGeometry x="460" y="65" width="180" height="210" as="geometry"/></mxCell><mxCell id="FwAvgV-Urs3Dg-ANaa96-15" value="" style="shape=partialRectangle;collapsible=0;dropTarget=0;pointerEvents=0;fillColor=none;top=0;left=0;bottom=1;right=0;points=[[0,0.5],[1,0.5]];portConstraint=eastwest;" parent="FwAvgV-Urs3Dg-ANaa96-14" vertex="1"><mxGeometry y="30" width="180" height="30" as="geometry"/></mxCell><mxCell id="FwAvgV-Urs3Dg-ANaa96-16" value="PK" style="shape=partialRectangle;connectable=0;fillColor=none;top=0;left=0;bottom=0;right=0;fontStyle=1;overflow=hidden;" parent="FwAvgV-Urs3Dg-ANaa96-15" vertex="1"><mxGeometry width="30" height="30" as="geometry"/></mxCell><mxCell id="FwAvgV-Urs3Dg-ANaa96-17" value="game_id: long" style="shape=partialRectangle;connectable=0;fillColor=none;top=0;left=0;bottom=0;right=0;align=left;spacingLeft=6;fontStyle=5;overflow=hidden;" parent="FwAvgV-Urs3Dg-ANaa96-15" vertex="1"><mxGeometry x="30" width="150" height="30" as="geometry"/></mxCell><mxCell id="FwAvgV-Urs3Dg-ANaa96-18" value="" style="shape=partialRectangle;collapsible=0;dropTarget=0;pointerEvents=0;fillColor=none;top=0;left=0;bottom=0;right=0;points=[[0,0.5],[1,0.5]];portConstraint=eastwest;" parent="FwAvgV-Urs3Dg-ANaa96-14" vertex="1"><mxGeometry y="60" width="180" height="30" as="geometry"/></mxCell><mxCell id="FwAvgV-Urs3Dg-ANaa96-19" value="" style="shape=partialRectangle;connectable=0;fillColor=none;top=0;left=0;bottom=0;right=0;editable=1;overflow=hidden;" parent="FwAvgV-Urs3Dg-ANaa96-18" vertex="1"><mxGeometry width="30" height="30" as="geometry"/></mxCell><mxCell id="FwAvgV-Urs3Dg-ANaa96-20" value="timestamp: Date" style="shape=partialRectangle;connectable=0;fillColor=none;top=0;left=0;bottom=0;right=0;align=left;spacingLeft=6;overflow=hidden;" parent="FwAvgV-Urs3Dg-ANaa96-18" vertex="1"><mxGeometry x="30" width="150" height="30" as="geometry"/></mxCell><mxCell id="FwAvgV-Urs3Dg-ANaa96-21" value="" style="shape=partialRectangle;collapsible=0;dropTarget=0;pointerEvents=0;fillColor=none;top=0;left=0;bottom=0;right=0;points=[[0,0.5],[1,0.5]];portConstraint=eastwest;" parent="FwAvgV-Urs3Dg-ANaa96-14" vertex="1"><mxGeometry y="90" width="180" height="30" as="geometry"/></mxCell><mxCell id="FwAvgV-Urs3Dg-ANaa96-22" value="" style="shape=partialRectangle;connectable=0;fillColor=none;top=0;left=0;bottom=0;right=0;editable=1;overflow=hidden;" parent="FwAvgV-Urs3Dg-ANaa96-21" vertex="1"><mxGeometry width="30" height="30" as="geometry"/></mxCell><mxCell id="FwAvgV-Urs3Dg-ANaa96-23" value="game_time_limit: int" style="shape=partialRectangle;connectable=0;fillColor=none;top=0;left=0;bottom=0;right=0;align=left;spacingLeft=6;overflow=hidden;" parent="FwAvgV-Urs3Dg-ANaa96-21" vertex="1"><mxGeometry x="30" width="150" height="30" as="geometry"/></mxCell><mxCell id="FwAvgV-Urs3Dg-ANaa96-24" value="" style="shape=partialRectangle;collapsible=0;dropTarget=0;pointerEvents=0;fillColor=none;top=0;left=0;bottom=0;right=0;points=[[0,0.5],[1,0.5]];portConstraint=eastwest;" parent="FwAvgV-Urs3Dg-ANaa96-14" vertex="1"><mxGeometry y="120" width="180" height="30" as="geometry"/></mxCell><mxCell id="FwAvgV-Urs3Dg-ANaa96-25" value="UK" style="shape=partialRectangle;connectable=0;fillColor=none;top=0;left=0;bottom=0;right=0;editable=1;overflow=hidden;" parent="FwAvgV-Urs3Dg-ANaa96-24" vertex="1"><mxGeometry width="30" height="30" as="geometry"/></mxCell><mxCell id="FwAvgV-Urs3Dg-ANaa96-26" value="game_tiles: int" style="shape=partialRectangle;connectable=0;fillColor=none;top=0;left=0;bottom=0;right=0;align=left;spacingLeft=6;overflow=hidden;" parent="FwAvgV-Urs3Dg-ANaa96-24" vertex="1"><mxGeometry x="30" width="150" height="30" as="geometry"/></mxCell><mxCell id="FwAvgV-Urs3Dg-ANaa96-27" value="" style="shape=partialRectangle;collapsible=0;dropTarget=0;pointerEvents=0;fillColor=none;top=0;left=0;bottom=0;right=0;points=[[0,0.5],[1,0.5]];portConstraint=eastwest;" parent="FwAvgV-Urs3Dg-ANaa96-14" vertex="1"><mxGeometry y="150" width="180" height="30" as="geometry"/></mxCell><mxCell id="FwAvgV-Urs3Dg-ANaa96-28" value="" style="shape=partialRectangle;connectable=0;fillColor=none;top=0;left=0;bottom=0;right=0;editable=1;overflow=hidden;" parent="FwAvgV-Urs3Dg-ANaa96-27" vertex="1"><mxGeometry width="30" height="30" as="geometry"/></mxCell><mxCell id="FwAvgV-Urs3Dg-ANaa96-29" value="game_difficulty: int" style="shape=partialRectangle;connectable=0;fillColor=none;top=0;left=0;bottom=0;right=0;align=left;spacingLeft=6;overflow=hidden;" parent="FwAvgV-Urs3Dg-ANaa96-27" vertex="1"><mxGeometry x="30" width="150" height="30" as="geometry"/></mxCell><mxCell id="FwAvgV-Urs3Dg-ANaa96-30" value="" style="shape=partialRectangle;collapsible=0;dropTarget=0;pointerEvents=0;fillColor=none;top=0;left=0;bottom=0;right=0;points=[[0,0.5],[1,0.5]];portConstraint=eastwest;" parent="FwAvgV-Urs3Dg-ANaa96-14" vertex="1"><mxGeometry y="180" width="180" height="30" as="geometry"/></mxCell><mxCell id="FwAvgV-Urs3Dg-ANaa96-31" value="FK" style="shape=partialRectangle;connectable=0;fillColor=none;top=0;left=0;bottom=0;right=0;editable=1;overflow=hidden;" parent="FwAvgV-Urs3Dg-ANaa96-30" vertex="1"><mxGeometry width="30" height="30" as="geometry"/></mxCell><mxCell id="FwAvgV-Urs3Dg-ANaa96-32" value="user_id: long" style="shape=partialRectangle;connectable=0;fillColor=none;top=0;left=0;bottom=0;right=0;align=left;spacingLeft=6;overflow=hidden;" parent="FwAvgV-Urs3Dg-ANaa96-30" vertex="1"><mxGeometry x="30" width="150" height="30" as="geometry"/></mxCell><mxCell id="FwAvgV-Urs3Dg-ANaa96-35" value="" style="edgeStyle=entityRelationEdgeStyle;fontSize=12;html=1;endArrow=ERzeroToMany;startArrow=ERmandOne;entryX=-0.006;entryY=0.267;entryDx=0;entryDy=0;entryPerimeter=0;" parent="1" target="FwAvgV-Urs3Dg-ANaa96-21" edge="1"><mxGeometry width="100" height="100" relative="1" as="geometry"><mxPoint x="220" y="210" as="sourcePoint"/><mxPoint x="320" y="110" as="targetPoint"/></mxGeometry></mxCell><mxCell id="FwAvgV-Urs3Dg-ANaa96-36" value="One User might play multiple&lt;br&gt;games in a row" style="edgeLabel;html=1;align=center;verticalAlign=middle;resizable=0;points=[];" parent="FwAvgV-Urs3Dg-ANaa96-35" vertex="1" connectable="0"><mxGeometry x="0.0457" y="1" relative="1" as="geometry"><mxPoint as="offset"/></mxGeometry></mxCell></root></mxGraphModel></diagram></mxfile>